<?xml version="1.0" encoding="UTF-8"?>
<svg version="1.1" xmlns="http://www.w3.org/2000/svg" width="512" height="512">
<path d="M0 0 C1.75518196 0.29794716 1.75518196 0.29794716 3.54582214 0.60191345 C6.76508625 1.14979037 9.98326451 1.70358558 13.20105457 2.26004219 C16.67390439 2.85916471 20.14803698 3.45076257 23.62200928 4.04333496 C29.54449823 5.05462446 35.46613579 6.07077602 41.38720703 7.09033203 C50.08212621 8.58751477 58.77875492 10.07450293 67.47558594 11.56054688 C116.7200075 19.99394345 165.93643943 28.58210156 215.15917969 37.14257812 C215.15917969 132.18257813 215.15917969 227.22257813 215.15917969 325.14257812 C191.88038034 335.93031441 168.6074978 346.69801427 145.24121094 357.2890625 C138.08188505 360.53741897 130.933469 363.80970912 123.78417969 367.08007812 C122.31901173 367.75016563 120.85384246 368.42025027 119.38867188 369.09033203 C114.97867119 371.10737596 110.56890327 373.12492848 106.15917969 375.14257812 C75.45196726 389.19252822 75.45196726 389.19252822 62.39746094 395.13085938 C61.6827916 395.45605057 60.96812225 395.78124176 60.23179626 396.11628723 C56.72763205 397.71008007 53.22207788 399.30068262 49.71362305 400.88500977 C43.60848434 403.64455625 37.52346279 406.42922834 31.48730469 409.33789062 C30.48094971 409.81629395 29.47459473 410.29469727 28.43774414 410.78759766 C26.61857825 411.65520706 24.80638529 412.53768812 23.00366211 413.43896484 C22.20806885 413.81553223 21.41247559 414.19209961 20.59277344 414.58007812 C19.9230249 414.90878906 19.25327637 415.2375 18.56323242 415.57617188 C12.33633335 417.04325889 5.73984307 414.57817991 -0.14477539 412.58911133 C-0.93518723 412.32859985 -1.72559906 412.06808838 -2.53996277 411.79968262 C-5.14911446 410.93784492 -7.75466246 410.06560419 -10.36035156 409.19335938 C-12.21866264 408.57746189 -14.07720348 407.9622573 -15.93595886 407.34770203 C-20.85186329 405.72047764 -25.76484454 404.08460228 -30.67718506 402.44665527 C-35.50691774 400.83750376 -40.3388897 399.23511398 -45.17089844 397.6328125 C-46.11826056 397.3186482 -47.06562267 397.00448391 -48.04169273 396.68079948 C-49.9579256 396.04534141 -51.87416693 395.40990885 -53.79041672 394.7745018 C-56.68673269 393.81375482 -59.58272142 392.85202639 -62.47866821 391.89016724 C-80.14511686 386.02542998 -97.84436073 380.26332426 -115.54850864 374.51361179 C-126.94088705 370.81255204 -138.3211692 367.07470649 -149.70172119 363.33746338 C-156.13037728 361.22663701 -162.55976117 359.11803012 -168.98925781 357.00976562 C-169.62586208 356.80101681 -170.26246635 356.59226799 -170.91836166 356.37719345 C-182.36876368 352.62278677 -193.82174123 348.87633642 -205.27905273 345.14306641 C-207.02638076 344.57369627 -208.77361878 344.0040498 -210.52075195 343.43408203 C-212.92140752 342.65107848 -215.32239948 341.86912045 -217.72363281 341.08789062 C-218.46957703 340.84508362 -219.21552124 340.60227661 -219.98406982 340.35211182 C-224.04756545 339.03393165 -228.11744959 337.73890475 -232.1953125 336.46582031 C-233.07524872 336.19067596 -233.95518494 335.91553162 -234.86178589 335.63204956 C-236.55988013 335.10239937 -238.25884492 334.5755302 -239.95877075 334.05178833 C-245.73094061 332.25245783 -245.73094061 332.25245783 -246.84082031 331.14257812 C-246.93763198 329.64129416 -246.96453766 328.13545123 -246.96386814 326.63104916 C-246.96585919 325.65022395 -246.96785024 324.66939875 -246.96990162 323.65885156 C-246.96698878 322.56840793 -246.96407594 321.4779643 -246.96107483 320.35447693 C-246.96192925 319.20614429 -246.96278368 318.05781165 -246.963664 316.87468106 C-246.96503213 313.67308328 -246.96188483 310.47152544 -246.95688593 307.26993239 C-246.95258461 303.82274665 -246.95402763 300.37556291 -246.95478821 296.92837524 C-246.95531365 290.95117687 -246.95216478 284.97398938 -246.94655037 278.99679375 C-246.93843804 270.35467486 -246.93582042 261.71256127 -246.93456238 253.07043899 C-246.93237144 239.05061845 -246.92571021 225.03080371 -246.91625977 211.01098633 C-246.90708674 197.38859079 -246.90000537 183.76619683 -246.89575195 170.14379883 C-246.89548923 169.30471579 -246.89522651 168.46563276 -246.89495582 167.60112297 C-246.89365082 163.39186959 -246.89238711 159.1826162 -246.89114392 154.9733628 C-246.88076999 120.02976377 -246.86315054 85.08617148 -246.84082031 50.14257812 C-242.32176972 48.60520619 -237.81468201 47.36716349 -233.15966797 46.32446289 C-232.40299489 46.15240987 -231.64632181 45.98035685 -230.86671925 45.8030901 C-228.33009535 45.22712236 -225.79250204 44.65554961 -223.25488281 44.08398438 C-221.41580231 43.66745139 -219.57677904 43.25066566 -217.73780823 42.83364868 C-212.70359578 41.69293431 -207.66850189 40.55615486 -202.63323593 39.42010117 C-198.39581905 38.46353245 -194.15892832 37.50464503 -189.92203808 36.5457468 C-147.9281676 27.04209869 -105.92098876 17.59700226 -63.91256869 8.15788984 C-59.49616465 7.16549404 -55.07982371 6.17281746 -50.6634655 5.18021774 C-47.14637949 4.38991988 -43.62917046 3.60017122 -40.11195374 2.81045532 C-37.9983773 2.33549299 -35.88480584 1.86050857 -33.77124023 1.38549805 C-32.81571573 1.17113885 -31.86019123 0.95677965 -30.87571144 0.73592472 C-30.00090315 0.53920894 -29.12609486 0.34249315 -28.22477722 0.13981628 C-27.09190419 -0.11460094 -27.09190419 -0.11460094 -25.93614483 -0.37415791 C-24.54697097 -0.69455585 -23.16315483 -1.03920969 -21.7861948 -1.40858746 C-14.62521029 -3.06076103 -7.08800261 -1.23614577 0 0 Z " fill="#E8AB65" transform="translate(271.8408203125,48.857421875)"/>
<path d="M0 0 C0.67245443 0.11433947 1.34490887 0.22867893 2.03774071 0.34648323 C4.26661289 0.72711279 6.49372047 1.11719157 8.72094727 1.50732422 C10.32791959 1.78375658 11.93499339 2.05959956 13.54216003 2.3348999 C17.88763604 3.08096896 22.231652 3.83524069 26.57544708 4.59102631 C31.12165638 5.38058093 35.66917202 6.16253817 40.21655273 6.9453125 C48.81975578 8.42742869 57.42176742 9.91634434 66.02336884 11.40772438 C75.81931314 13.10584187 85.61656609 14.79634785 95.41393471 16.48622513 C115.56070549 19.96137104 135.70581907 23.44604175 155.84985352 26.93701172 C156.17985352 27.92701172 156.50985352 28.91701172 156.84985352 29.93701172 C155.24242149 30.41924133 153.63498945 30.90147091 152.02755737 31.38370037 C150.54572537 31.8282501 149.0638935 32.27280032 147.58206177 32.71735096 C143.24652433 34.01801459 138.91098405 35.31866872 134.57543945 36.61930847 C125.61374732 39.30777766 116.65207608 41.99631647 107.69049072 44.68514156 C102.49362439 46.24440114 97.29674278 47.80360983 92.09985352 49.36279297 C91.05039551 49.67765467 90.0009375 49.99251637 88.91967773 50.31691933 C74.85700463 54.53594822 60.79363661 58.75265092 46.72955322 62.96697617 C41.33645885 64.5831315 35.94351141 66.19977711 30.55056763 67.81643486 C25.51160574 69.32691335 20.47240354 70.83658654 15.43301392 72.34563732 C12.27065146 73.29283543 9.10853265 74.24084503 5.94647217 75.18905067 C4.52262295 75.61584922 3.09868112 76.04233901 1.67462158 76.46843529 C-11.95788164 80.54776988 -25.54880409 84.75198329 -39.15014648 88.93701172 C-39.48014648 129.19701172 -39.81014648 169.45701172 -40.15014648 210.93701172 C-40.48014648 210.93701172 -40.81014648 210.93701172 -41.15014648 210.93701172 C-41.15014648 170.67701172 -41.15014648 130.41701172 -41.15014648 88.93701172 C-50.39014648 87.28701172 -59.63014648 85.63701172 -69.15014648 83.93701172 C-75.16924096 82.83885822 -81.18798432 81.73995292 -87.20495796 80.63042259 C-89.83323207 80.1459739 -92.46174282 79.66282693 -95.09031677 79.18000793 C-102.53647352 77.81225613 -109.98248201 76.44371225 -117.42773438 75.07104492 C-122.04369614 74.22010296 -126.66012222 73.37172228 -131.27686882 72.52504921 C-133.01899803 72.20504988 -134.76095024 71.88408529 -136.50271797 71.56212425 C-138.91022715 71.11719298 -141.31831277 70.67552172 -143.7265625 70.23461914 C-144.43854797 70.10221329 -145.15053345 69.96980743 -145.88409424 69.83338928 C-148.69107421 69.32240021 -151.28932684 68.93701172 -154.15014648 68.93701172 C-154.15379211 69.56484055 -154.15743774 70.19266937 -154.16119385 70.83952332 C-154.20302228 77.37735944 -154.27237059 83.91449377 -154.35766602 90.4519043 C-154.38588196 92.891286 -154.40709333 95.33075924 -154.42114258 97.77026367 C-154.44256258 101.2781462 -154.48921083 104.78492743 -154.54077148 108.29248047 C-154.54200012 109.38223679 -154.54322876 110.4719931 -154.54449463 111.59477234 C-154.69089144 119.17260188 -154.69089144 119.17260188 -157.06445312 123.12329102 C-160.18659714 125.83831008 -162.0332141 125.63175738 -166.04077148 125.41748047 C-170.38452063 124.746273 -174.504607 123.53337299 -178.68481445 122.21118164 C-183.46030093 120.70365044 -188.24775824 119.3854319 -193.11108398 118.18701172 C-194.32352783 117.88674072 -195.53597168 117.58646973 -196.78515625 117.27709961 C-199.20759342 116.68254672 -201.63254548 116.0981345 -204.06005859 115.5246582 C-205.73853882 115.1080896 -205.73853882 115.1080896 -207.45092773 114.68310547 C-208.45293213 114.44261475 -209.45493652 114.20212402 -210.48730469 113.9543457 C-213.63446579 112.75197839 -215.01820857 111.53487481 -217.15014648 108.93701172 C-217.63116455 106.44390869 -217.63116455 106.44390869 -217.60424805 103.61767578 C-217.60394592 102.55687805 -217.6036438 101.49608032 -217.60333252 100.40313721 C-217.57236481 98.69513947 -217.57236481 98.69513947 -217.54077148 96.95263672 C-217.53511169 95.78190613 -217.5294519 94.61117554 -217.52362061 93.40496826 C-217.50122773 89.66523372 -217.45102329 85.92645675 -217.40014648 82.18701172 C-217.38008537 79.6518693 -217.36183393 77.11671187 -217.34545898 74.58154297 C-217.30135326 68.36637243 -217.23441103 62.15176048 -217.15014648 55.93701172 C-202.46577609 51.70684391 -187.78889847 47.48307038 -172.99829102 43.63598633 C-166.11316163 41.81815909 -159.30775063 39.78121494 -152.50170898 37.69091797 C-140.77905555 34.0938013 -129.00121467 30.71118035 -117.19921875 27.38476562 C-113.84933189 26.44030628 -110.50065247 25.49165728 -107.15209961 24.54248047 C-94.81422798 21.05281701 -82.45931127 17.63885319 -70.06425476 14.35742188 C-63.14668549 12.515781 -56.29800057 10.50010216 -49.46264648 8.37451172 C-41.58116305 5.94465094 -33.67989506 3.63344771 -25.71264648 1.49951172 C-24.3007605 1.11073853 -24.3007605 1.11073853 -22.86035156 0.71411133 C-21.96727295 0.47958252 -21.07419434 0.24505371 -20.15405273 0.00341797 C-19.37876221 -0.203396 -18.60347168 -0.41020996 -17.8046875 -0.62329102 C-11.77385485 -1.62223607 -5.98248669 -1.03401004 0 0 Z " fill="#E4A661" transform="translate(326.150146484375,58.06298828125)"/>
<path d="M0 0 C1.00732681 0.17282501 2.01465363 0.34565002 3.05250549 0.52371216 C5.1666946 0.88855968 7.28029183 1.25685208 9.39331055 1.62841797 C12.64117927 2.1974628 15.89162091 2.74968853 19.14257812 3.30078125 C21.19939409 3.65784561 23.2560413 4.01588371 25.3125 4.375 C26.28843613 4.53966766 27.26437225 4.70433533 28.2698822 4.87399292 C29.16493973 5.03400787 30.05999725 5.19402283 30.98217773 5.35888672 C31.77301254 5.49656464 32.56384735 5.63424255 33.37864685 5.77609253 C33.97685745 5.95568512 34.57506805 6.13527771 35.19140625 6.3203125 C35.52140625 6.9803125 35.85140625 7.6403125 36.19140625 8.3203125 C24.39402964 12.18610004 12.57668197 15.84313085 0.58300781 19.05151367 C-9.24281626 21.68485533 -18.99626262 24.55245767 -28.75439453 27.42480469 C-31.83156434 28.3270476 -34.91136392 29.21969421 -37.9921875 30.109375 C-47.11107704 32.74590933 -56.20945255 35.41315725 -65.24609375 38.3203125 C-73.10985059 40.84277456 -81.0333273 43.09099305 -88.99267578 45.29077148 C-99.56384937 48.22493059 -110.09306554 51.29797996 -120.62109375 54.3828125 C-121.47374817 54.6323468 -122.32640259 54.8818811 -123.20489502 55.13897705 C-125.72541543 55.87686642 -128.24560175 56.61588335 -130.765625 57.35546875 C-131.58345459 57.59527466 -132.40128418 57.83508057 -133.24389648 58.08215332 C-137.64124505 59.37535137 -142.03161983 60.68875544 -146.41552734 62.02685547 C-147.33081711 62.30524765 -148.24610687 62.58363983 -149.18913269 62.87046814 C-150.94749706 63.40635526 -152.7048064 63.94571999 -154.46089172 64.48902893 C-155.24941025 64.72911179 -156.03792877 64.96919464 -156.8503418 65.21655273 C-157.54403366 65.43012924 -158.23772552 65.64370575 -158.95243835 65.86375427 C-160.80859375 66.3203125 -160.80859375 66.3203125 -163.80859375 66.3203125 C-163.7997113 66.9606694 -163.79082886 67.60102631 -163.78167725 68.26078796 C-163.69315704 74.9279182 -163.63283982 81.59488139 -163.58886719 88.26245117 C-163.5687567 90.75047588 -163.54146448 93.23845336 -163.50683594 95.72631836 C-163.45829522 99.30334125 -163.4356188 102.87973901 -163.41796875 106.45703125 C-163.39732361 107.56866135 -163.37667847 108.68029144 -163.35540771 109.8256073 C-163.35317735 117.50836518 -163.35317735 117.50836518 -165.60986328 121.53173828 C-168.25627916 123.68448564 -170.12239908 123.88348438 -173.49316406 123.66162109 C-177.98464354 122.99954936 -182.31421727 121.84805795 -186.68359375 120.6328125 C-187.68430908 120.36098145 -188.68502441 120.08915039 -189.71606445 119.80908203 C-191.76016544 119.2527072 -193.80322756 118.69250105 -195.84521484 118.12841797 C-198.61429931 117.37329607 -201.3896886 116.65427554 -204.171875 115.94921875 C-205.7800334 115.53157903 -207.38811126 115.11362899 -208.99609375 114.6953125 C-209.73134277 114.51395752 -210.4665918 114.33260254 -211.22412109 114.14575195 C-215.53053566 112.99455742 -218.01647801 111.79865413 -220.80859375 108.3203125 C-221.28961182 105.82720947 -221.28961182 105.82720947 -221.26269531 103.00097656 C-221.26239319 101.94017883 -221.26209106 100.8793811 -221.26177979 99.78643799 C-221.23081207 98.07844025 -221.23081207 98.07844025 -221.19921875 96.3359375 C-221.19355896 95.16520691 -221.18789917 93.99447632 -221.18206787 92.78826904 C-221.159675 89.0485345 -221.10947055 85.30975753 -221.05859375 81.5703125 C-221.03853264 79.03517008 -221.02028119 76.50001265 -221.00390625 73.96484375 C-220.95980053 67.74967321 -220.89285829 61.53506126 -220.80859375 55.3203125 C-206.12422335 51.09014469 -191.44734574 46.86637116 -176.65673828 43.01928711 C-169.7716089 41.20145987 -162.9661979 39.16451572 -156.16015625 37.07421875 C-144.43750282 33.47710208 -132.65966193 30.09448113 -120.85766602 26.76806641 C-117.50777916 25.82360706 -114.15909974 24.87495806 -110.81054688 23.92578125 C-98.47267524 20.43611779 -86.11775854 17.02215397 -73.72270203 13.74072266 C-66.80513276 11.89908178 -59.95644784 9.88340294 -53.12109375 7.7578125 C-45.23961032 5.32795173 -37.33834233 3.01674849 -29.37109375 0.8828125 C-27.95920776 0.49403931 -27.95920776 0.49403931 -26.51879883 0.09741211 C-25.62572021 -0.1371167 -24.7326416 -0.37164551 -23.8125 -0.61328125 C-23.03720947 -0.82009521 -22.26191895 -1.02690918 -21.46313477 -1.23999023 C-14.13833927 -2.45326685 -7.22835726 -1.26802131 0 0 Z " fill="#728286" transform="translate(329.80859375,58.6796875)"/>
<path d="M0 0 C4.55821339 -0.04426427 8.50498352 0.17752497 12.9375 1.25 C20.64709938 2.99541359 28.4079321 4.28540985 36.20874023 5.55371094 C41.20167811 6.36602622 46.19245852 7.18902606 51.17578125 8.05859375 C52.07852783 8.21513428 52.98127441 8.3716748 53.91137695 8.53295898 C56 9 56 9 57 10 C57.11423502 11.59955084 57.15958777 13.20408694 57.17700195 14.80761719 C57.19625481 16.34491486 57.19625481 16.34491486 57.21589661 17.91326904 C57.22328354 19.02985901 57.23067047 20.14644897 57.23828125 21.296875 C57.246353 22.43779602 57.25442474 23.57871704 57.26274109 24.75421143 C57.27660286 27.1753181 57.2873156 29.59644449 57.29516602 32.01757812 C57.31236267 35.72042991 57.35622964 39.42238552 57.40039062 43.125 C57.41051835 45.47395175 57.4190342 47.82291111 57.42578125 50.171875 C57.44328934 51.28036804 57.46079742 52.38886108 57.47883606 53.53094482 C57.45724866 61.18633632 57.45724866 61.18633632 55.1965332 65.20922852 C52.55161645 67.36555444 50.68701997 67.5632262 47.31542969 67.34130859 C42.82395021 66.67923686 38.49437648 65.52774545 34.125 64.3125 C33.12428467 64.04066895 32.12356934 63.76883789 31.0925293 63.48876953 C29.04842831 62.9323947 27.00536619 62.37218855 24.96337891 61.80810547 C22.19429444 61.05298357 19.41890515 60.33396304 16.63671875 59.62890625 C15.02856035 59.21126653 13.42048249 58.79331649 11.8125 58.375 C11.07725098 58.19364502 10.34200195 58.01229004 9.58447266 57.82543945 C5.27793534 56.67421211 2.79603864 55.47435804 0 52 C-0.48101807 49.54486084 -0.48101807 49.54486084 -0.45410156 46.77246094 C-0.45379944 45.73168396 -0.45349731 44.69090698 -0.45318604 43.61859131 C-0.43254089 42.50179993 -0.41189575 41.38500854 -0.390625 40.234375 C-0.38496521 39.08584045 -0.37930542 37.93730591 -0.37347412 36.75396729 C-0.35108331 33.08555426 -0.30087942 29.41811783 -0.25 25.75 C-0.22993861 23.26303494 -0.21168722 20.77605457 -0.1953125 18.2890625 C-0.15120955 12.19237511 -0.08426949 6.09625733 0 0 Z " fill="#5C686C" transform="translate(109,115)"/>
<path d="M0 0 C0 0.66 0 1.32 0 2 C-0.72344604 2.20996109 -1.44689209 2.41992218 -2.19226074 2.63624573 C-9.13085183 4.65001934 -16.06939744 6.66394957 -23.00789642 8.6780405 C-26.57197244 9.71260644 -30.13606387 10.74711917 -33.70019531 11.78149414 C-48.55125648 16.09157884 -63.40141627 20.40463882 -78.24583435 24.73756409 C-83.0911528 26.15185741 -87.93711259 27.56381782 -92.78515625 28.96875 C-102.42101021 31.76323517 -112.03585453 34.6114937 -121.625 37.5625 C-129.92586345 40.1127058 -138.26184032 42.47421905 -146.64746094 44.72851562 C-153.5793605 46.59717929 -160.48261482 48.55303454 -167.375 50.5625 C-168.37950195 50.85519775 -169.38400391 51.14789551 -170.41894531 51.44946289 C-174.92623385 52.77206064 -179.42172291 54.11947293 -183.89453125 55.5546875 C-184.62816895 55.78986084 -185.36180664 56.02503418 -186.11767578 56.26733398 C-188.03295122 56.88746032 -189.94439433 57.51938939 -191.85546875 58.15234375 C-194.78033484 58.94078591 -197.00466026 59.06889123 -200 59 C-199.98667633 59.97932747 -199.98667633 59.97932747 -199.9730835 60.97843933 C-199.88457084 67.77533206 -199.82424914 74.57206099 -199.78027344 81.36938477 C-199.76016159 83.90591075 -199.73286839 86.4423904 -199.69824219 88.97875977 C-199.64970758 92.62527911 -199.62702637 96.27118528 -199.609375 99.91796875 C-199.58872986 101.05147263 -199.56808472 102.1849765 -199.54681396 103.35282898 C-199.54457549 111.21183872 -199.54457549 111.21183872 -201.86328125 115.22460938 C-204.5247309 117.4359967 -205.83557269 117.53713338 -209.25 117.3125 C-210.14203125 117.26738281 -211.0340625 117.22226563 -211.953125 117.17578125 C-212.62859375 117.11777344 -213.3040625 117.05976563 -214 117 C-214 116.67 -214 116.34 -214 116 C-212.576875 115.5978125 -212.576875 115.5978125 -211.125 115.1875 C-207.74732727 114.25013412 -207.74732727 114.25013412 -206 111 C-205.6723603 108.59700223 -205.6723603 108.59700223 -205.68115234 105.88598633 C-205.66128265 104.84513382 -205.64141296 103.80428131 -205.62094116 102.73188782 C-205.60938995 101.60993515 -205.59783875 100.48798248 -205.5859375 99.33203125 C-205.56657135 98.18208176 -205.5472052 97.03213226 -205.5272522 95.84733582 C-205.46740239 92.16913301 -205.42104894 88.490899 -205.375 84.8125 C-205.33682524 82.32094978 -205.29777381 79.82941283 -205.2578125 77.33789062 C-205.16169638 71.22537806 -205.07666462 65.11278579 -205 59 C-190.22011486 54.27240225 -175.32508893 49.92753765 -160.44012451 45.54571533 C-157.68683028 44.73482197 -154.93395146 43.92252366 -152.18108177 43.11019039 C-149.48365622 42.31432925 -146.78604218 41.51910858 -144.08836746 40.72409248 C-142.21756962 40.17271882 -140.34686588 39.62102587 -138.47616577 39.06932068 C-131.31983584 36.96306479 -124.15438557 34.89166376 -116.97937012 32.84994507 C-113.35500024 31.81599656 -109.73926359 30.75623386 -106.125 29.6875 C-99.23283915 27.65401114 -92.3362609 25.63598158 -85.4375 23.625 C-84.42123535 23.32875732 -83.4049707 23.03251465 -82.35791016 22.72729492 C-80.27621861 22.1205568 -78.19451278 21.51386768 -76.11279297 20.90722656 C-70.07837135 19.14848846 -64.04436568 17.38832328 -58.01049805 15.62768555 C-52.96080227 14.15439451 -47.91059405 12.6829044 -42.859375 11.21484375 C-41.84721924 10.92037354 -40.83506348 10.62590332 -39.79223633 10.32250977 C-37.7818568 9.73767502 -35.7712807 9.15351554 -33.76049805 8.57006836 C-28.90349862 7.15647304 -24.05628474 5.71827053 -19.22265625 4.2265625 C-18.30967773 3.94627197 -17.39669922 3.66598145 -16.45605469 3.37719727 C-14.7451774 2.84993484 -13.03605173 2.31694022 -11.32910156 1.77709961 C-7.44547218 0.58204198 -4.11678308 -0.33825272 0 0 Z " fill="#C08253" transform="translate(371,66)"/>
<path d="M0 0 C10.11040996 0.52158425 19.98661123 2.20504962 29.94018555 3.95629883 C32.71819583 4.44287648 35.49854872 4.91411748 38.27929688 5.38476562 C40.04443107 5.6917885 41.80941137 5.99969782 43.57421875 6.30859375 C44.40636398 6.44825058 45.23850922 6.58790741 46.09587097 6.73179626 C48.07714565 7.08739221 50.04153865 7.53489037 52 8 C52.33 8.66 52.66 9.32 53 10 C41.20262339 13.86578754 29.38527572 17.52281835 17.39160156 20.73120117 C7.56577749 23.36454283 -2.18766887 26.23214517 -11.94580078 29.10449219 C-15.02297059 30.0067351 -18.10277017 30.89938171 -21.18359375 31.7890625 C-30.30246847 34.42559254 -39.40099782 37.09243521 -48.4375 40 C-56.68235467 42.64830448 -64.99567193 45.00804076 -73.34423828 47.30664062 C-78.84502409 48.82398225 -84.32671919 50.38420655 -89.7890625 52.03515625 C-90.88323486 52.36394775 -91.97740723 52.69273926 -93.10473633 53.03149414 C-95.20083173 53.66435893 -97.29455702 54.30514221 -99.38549805 54.95483398 C-100.3269165 55.23786377 -101.26833496 55.52089355 -102.23828125 55.8125 C-103.06368408 56.06644531 -103.88908691 56.32039063 -104.73950195 56.58203125 C-107.21142163 57.03909211 -108.61564439 56.67490811 -111 56 C-106.52347229 54.56890156 -102.04690167 53.1379374 -97.5703125 51.70703125 C-96.86790058 51.48250526 -96.16548866 51.25797928 -95.44179153 51.02664948 C-86.75631601 48.25041337 -78.07043872 45.47544117 -69.38378906 42.70288086 C-66.89533814 41.90858968 -64.4068891 41.11429261 -61.91844177 40.31999016 C-60.23055151 39.78122912 -58.54265472 39.24248851 -56.85475159 38.70376778 C-46.8232801 35.50184973 -36.79359134 32.29448194 -26.76734734 29.07623005 C-20.6141462 27.1012036 -14.45980593 25.12975927 -8.3045826 23.16104412 C-4.67034632 21.9984113 -1.036824 20.83364179 2.59515381 19.66397095 C5.99925665 18.56771135 9.40502347 17.4767918 12.81215286 16.3899765 C14.65039388 15.8020221 16.48677263 15.20825521 18.3230896 14.61431885 C19.41433136 14.26729919 20.50557312 13.92027954 21.62988281 13.56274414 C23.04953339 13.10720909 23.04953339 13.10720909 24.49786377 12.64247131 C27 12 27 12 31 12 C31 11.34 31 10.68 31 10 C29.13021484 9.61714844 29.13021484 9.61714844 27.22265625 9.2265625 C21.51288175 7.95772372 15.99518217 6.18464899 10.4375 4.375 C9.42880859 4.05015625 8.42011719 3.7253125 7.38085938 3.390625 C4.91938308 2.59735302 2.4591597 1.80041857 0 1 C0 0.67 0 0.34 0 0 Z " fill="#8EA0A4" transform="translate(313,57)"/>
<path d="M0 0 C1.32 0 2.64 0 4 0 C4.07593214 7.77784995 4.12855012 15.55560468 4.16479492 23.33374023 C4.1799012 25.98091199 4.2003873 28.62805864 4.22631836 31.27514648 C4.26261991 35.07542101 4.27970803 38.87536526 4.29296875 42.67578125 C4.30845261 43.86335526 4.32393646 45.05092926 4.33988953 46.27449036 C4.34022942 47.9258625 4.34022942 47.9258625 4.34057617 49.6105957 C4.34723801 50.58100296 4.35389984 51.55141022 4.36076355 52.55122375 C4 55 4 55 2.63374329 56.81852722 C0.32014983 58.49164668 -1.37024991 58.29726299 -4.1875 58.1875 C-5.08855469 58.16042969 -5.98960937 58.13335937 -6.91796875 58.10546875 C-7.60503906 58.07066406 -8.29210937 58.03585938 -9 58 C-9 57.67 -9 57.34 -9 57 C-8.05125 56.731875 -7.1025 56.46375 -6.125 56.1875 C-2.74732727 55.25013412 -2.74732727 55.25013412 -1 52 C-0.6723603 49.59700223 -0.6723603 49.59700223 -0.68115234 46.88598633 C-0.66128265 45.84513382 -0.64141296 44.80428131 -0.62094116 43.73188782 C-0.60938995 42.60993515 -0.59783875 41.48798248 -0.5859375 40.33203125 C-0.56657135 39.18208176 -0.5472052 38.03213226 -0.5272522 36.84733582 C-0.46740239 33.16913301 -0.42104894 29.490899 -0.375 25.8125 C-0.33682524 23.32094978 -0.29777381 20.82941283 -0.2578125 18.33789062 C-0.16169638 12.22537806 -0.07666462 6.11278579 0 0 Z " fill="#B97646" transform="translate(166,125)"/>
<path d="M0 0 C1.89611434 0.14213297 3.79188394 0.28886907 5.6875 0.4375 C6.74324219 0.51871094 7.79898437 0.59992187 8.88671875 0.68359375 C11.65086297 0.96451681 14.28945741 1.40156852 17 2 C13.65220841 4.08168944 11.74809609 4.1006308 7.9375 3.25 C6.65166016 2.97929688 6.65166016 2.97929688 5.33984375 2.703125 C3 2 3 2 0 0 Z " fill="#979A96" transform="translate(313,57)"/>
</svg>
